<svg id="visual" viewBox="0 0 1920 1080" width="1920" height="1080" xmlns="http://www.w3.org/2000/svg" xmlns:xlink="http://www.w3.org/1999/xlink" version="1.1"><rect x="0" y="0" width="1920" height="1080" fill="#F8F8F8"></rect><path d="M0 852L21.3 854.5C42.7 857 85.3 862 128 866.7C170.7 871.3 213.3 875.7 256 875C298.7 874.3 341.3 868.7 384 857.7C426.7 846.7 469.3 830.3 512 822.7C554.7 815 597.3 816 640 827.5C682.7 839 725.3 861 768 865.5C810.7 870 853.3 857 896 856C938.7 855 981.3 866 1024 863.3C1066.7 860.7 1109.3 844.3 1152 835.8C1194.7 827.3 1237.3 826.7 1280 831.5C1322.7 836.3 1365.3 846.7 1408 855.2C1450.7 863.7 1493.3 870.3 1536 871.3C1578.7 872.3 1621.3 867.7 1664 868.2C1706.7 868.7 1749.3 874.3 1792 871.7C1834.7 869 1877.3 858 1898.7 852.5L1920 847L1920 1081L1898.7 1081C1877.3 1081 1834.7 1081 1792 1081C1749.3 1081 1706.7 1081 1664 1081C1621.3 1081 1578.7 1081 1536 1081C1493.3 1081 1450.7 1081 1408 1081C1365.3 1081 1322.7 1081 1280 1081C1237.3 1081 1194.7 1081 1152 1081C1109.3 1081 1066.7 1081 1024 1081C981.3 1081 938.7 1081 896 1081C853.3 1081 810.7 1081 768 1081C725.3 1081 682.7 1081 640 1081C597.3 1081 554.7 1081 512 1081C469.3 1081 426.7 1081 384 1081C341.3 1081 298.7 1081 256 1081C213.3 1081 170.7 1081 128 1081C85.3 1081 42.7 1081 21.3 1081L0 1081Z" fill="#7289da"></path><path d="M0 920L21.3 909.2C42.7 898.3 85.3 876.7 128 866C170.7 855.3 213.3 855.7 256 856.2C298.7 856.7 341.3 857.3 384 863.5C426.7 869.7 469.3 881.3 512 887.8C554.7 894.3 597.3 895.7 640 896.8C682.7 898 725.3 899 768 902.2C810.7 905.3 853.3 910.7 896 908.2C938.7 905.7 981.3 895.3 1024 885.2C1066.7 875 1109.3 865 1152 862.5C1194.7 860 1237.3 865 1280 872.8C1322.7 880.7 1365.3 891.3 1408 895C1450.7 898.7 1493.3 895.3 1536 891.5C1578.7 887.7 1621.3 883.3 1664 883.7C1706.7 884 1749.3 889 1792 891.8C1834.7 894.7 1877.3 895.3 1898.7 895.7L1920 896L1920 1081L1898.7 1081C1877.3 1081 1834.7 1081 1792 1081C1749.3 1081 1706.7 1081 1664 1081C1621.3 1081 1578.7 1081 1536 1081C1493.3 1081 1450.7 1081 1408 1081C1365.3 1081 1322.7 1081 1280 1081C1237.3 1081 1194.7 1081 1152 1081C1109.3 1081 1066.7 1081 1024 1081C981.3 1081 938.7 1081 896 1081C853.3 1081 810.7 1081 768 1081C725.3 1081 682.7 1081 640 1081C597.3 1081 554.7 1081 512 1081C469.3 1081 426.7 1081 384 1081C341.3 1081 298.7 1081 256 1081C213.3 1081 170.7 1081 128 1081C85.3 1081 42.7 1081 21.3 1081L0 1081Z" fill="#667dd3"></path><path d="M0 901L21.3 904.2C42.7 907.3 85.3 913.7 128 916.8C170.7 920 213.3 920 256 924.5C298.7 929 341.3 938 384 934.8C426.7 931.7 469.3 916.3 512 913.3C554.7 910.3 597.3 919.7 640 921C682.7 922.3 725.3 915.7 768 912.3C810.7 909 853.3 909 896 914.7C938.7 920.3 981.3 931.7 1024 931.8C1066.7 932 1109.3 921 1152 919.2C1194.7 917.3 1237.3 924.7 1280 928.8C1322.7 933 1365.3 934 1408 933.2C1450.7 932.3 1493.3 929.7 1536 925.7C1578.7 921.7 1621.3 916.3 1664 919C1706.7 921.7 1749.3 932.3 1792 939.5C1834.7 946.7 1877.3 950.3 1898.7 952.2L1920 954L1920 1081L1898.7 1081C1877.3 1081 1834.7 1081 1792 1081C1749.3 1081 1706.7 1081 1664 1081C1621.3 1081 1578.7 1081 1536 1081C1493.3 1081 1450.7 1081 1408 1081C1365.3 1081 1322.7 1081 1280 1081C1237.3 1081 1194.7 1081 1152 1081C1109.3 1081 1066.7 1081 1024 1081C981.3 1081 938.7 1081 896 1081C853.3 1081 810.7 1081 768 1081C725.3 1081 682.7 1081 640 1081C597.3 1081 554.7 1081 512 1081C469.3 1081 426.7 1081 384 1081C341.3 1081 298.7 1081 256 1081C213.3 1081 170.7 1081 128 1081C85.3 1081 42.7 1081 21.3 1081L0 1081Z" fill="#5a72cb"></path><path d="M0 984L21.3 978.7C42.7 973.3 85.3 962.7 128 961.3C170.7 960 213.3 968 256 971.8C298.7 975.7 341.3 975.3 384 973.8C426.7 972.3 469.3 969.7 512 965.7C554.7 961.7 597.3 956.3 640 959.2C682.7 962 725.3 973 768 974.3C810.7 975.7 853.3 967.3 896 964.2C938.7 961 981.3 963 1024 963C1066.7 963 1109.3 961 1152 961C1194.7 961 1237.3 963 1280 962.5C1322.7 962 1365.3 959 1408 958.8C1450.7 958.7 1493.3 961.3 1536 962.8C1578.7 964.3 1621.3 964.7 1664 963C1706.7 961.3 1749.3 957.7 1792 960C1834.7 962.3 1877.3 970.7 1898.7 974.8L1920 979L1920 1081L1898.7 1081C1877.3 1081 1834.7 1081 1792 1081C1749.3 1081 1706.7 1081 1664 1081C1621.3 1081 1578.7 1081 1536 1081C1493.3 1081 1450.7 1081 1408 1081C1365.3 1081 1322.7 1081 1280 1081C1237.3 1081 1194.7 1081 1152 1081C1109.3 1081 1066.7 1081 1024 1081C981.3 1081 938.7 1081 896 1081C853.3 1081 810.7 1081 768 1081C725.3 1081 682.7 1081 640 1081C597.3 1081 554.7 1081 512 1081C469.3 1081 426.7 1081 384 1081C341.3 1081 298.7 1081 256 1081C213.3 1081 170.7 1081 128 1081C85.3 1081 42.7 1081 21.3 1081L0 1081Z" fill="#4e67c4"></path><path d="M0 1002L21.3 1002.7C42.7 1003.3 85.3 1004.7 128 1004.8C170.7 1005 213.3 1004 256 1002.2C298.7 1000.3 341.3 997.7 384 997.5C426.7 997.3 469.3 999.7 512 999.8C554.7 1000 597.3 998 640 998.8C682.7 999.7 725.3 1003.3 768 1003.7C810.7 1004 853.3 1001 896 1002.2C938.7 1003.3 981.3 1008.7 1024 1008C1066.7 1007.3 1109.3 1000.7 1152 1001C1194.7 1001.3 1237.3 1008.7 1280 1012.3C1322.7 1016 1365.3 1016 1408 1015.3C1450.7 1014.7 1493.3 1013.3 1536 1010.8C1578.7 1008.3 1621.3 1004.7 1664 1002.2C1706.7 999.7 1749.3 998.3 1792 998.7C1834.7 999 1877.3 1001 1898.7 1002L1920 1003L1920 1081L1898.7 1081C1877.3 1081 1834.7 1081 1792 1081C1749.3 1081 1706.7 1081 1664 1081C1621.3 1081 1578.7 1081 1536 1081C1493.3 1081 1450.7 1081 1408 1081C1365.3 1081 1322.7 1081 1280 1081C1237.3 1081 1194.7 1081 1152 1081C1109.3 1081 1066.7 1081 1024 1081C981.3 1081 938.7 1081 896 1081C853.3 1081 810.7 1081 768 1081C725.3 1081 682.7 1081 640 1081C597.3 1081 554.7 1081 512 1081C469.3 1081 426.7 1081 384 1081C341.3 1081 298.7 1081 256 1081C213.3 1081 170.7 1081 128 1081C85.3 1081 42.7 1081 21.3 1081L0 1081Z" fill="#425cbc"></path></svg>