<svg id="visual" viewBox="0 0 900 600" width="900" height="600" xmlns="http://www.w3.org/2000/svg" xmlns:xlink="http://www.w3.org/1999/xlink" version="1.1"><rect x="0" y="0" width="900" height="600" fill="#2C2F33"></rect><path d="M188 0L187.7 12.5C187.3 25 186.7 50 180.2 75C173.7 100 161.3 125 155.3 150C149.3 175 149.7 200 140.5 225C131.3 250 112.7 275 107.5 300C102.3 325 110.7 350 113 375C115.3 400 111.7 425 107.2 450C102.7 475 97.3 500 102.2 525C107 550 122 575 129.5 587.5L137 600L0 600L0 587.5C0 575 0 550 0 525C0 500 0 475 0 450C0 425 0 400 0 375C0 350 0 325 0 300C0 275 0 250 0 225C0 200 0 175 0 150C0 125 0 100 0 75C0 50 0 25 0 12.5L0 0Z" fill="#7289DA" stroke-linecap="round" stroke-linejoin="miter"></path></svg>